<svg width="31" height="35" viewBox="0 0 31 35" fill="none" xmlns="http://www.w3.org/2000/svg">
<path d="M29.7369 27.2976C29.2076 28.5204 28.5811 29.646 27.8552 30.6808C26.8657 32.0916 26.0555 33.0681 25.4312 33.6104C24.4633 34.5005 23.4263 34.9563 22.3158 34.9822C21.5186 34.9822 20.5572 34.7554 19.4381 34.2952C18.3154 33.8372 17.2835 33.6104 16.3401 33.6104C15.3506 33.6104 14.2894 33.8372 13.1543 34.2952C12.0175 34.7554 11.1017 34.9952 10.4015 35.019C9.33661 35.0643 8.27519 34.5955 7.21572 33.6104C6.53951 33.0206 5.6937 32.0095 4.68045 30.5771C3.59333 29.0475 2.69956 27.2738 1.99936 25.2517C1.24948 23.0675 0.873562 20.9524 0.873562 18.9048C0.873562 16.5592 1.3804 14.5362 2.39558 12.8409C3.19343 11.4792 4.25485 10.405 5.5833 9.61644C6.91175 8.82788 8.34714 8.42604 9.89292 8.40033C10.7387 8.40033 11.8479 8.66196 13.2263 9.17614C14.6007 9.69205 15.4833 9.95368 15.8702 9.95368C16.1595 9.95368 17.1399 9.64776 18.8019 9.03788C20.3736 8.47228 21.7001 8.23809 22.7868 8.33034C25.7315 8.56798 27.9437 9.72878 29.415 11.8201C26.7814 13.4158 25.4787 15.6507 25.5046 18.5178C25.5284 20.7511 26.3385 22.6095 27.9308 24.085C28.6524 24.7699 29.4582 25.2992 30.3548 25.6751C30.1603 26.239 29.9551 26.7791 29.7369 27.2976ZM22.9834 0.722172C22.9834 2.47257 22.3439 4.10691 21.0693 5.61965C19.531 7.41799 17.6705 8.45715 15.6528 8.29318C15.6271 8.08318 15.6122 7.86217 15.6122 7.62993C15.6122 5.94954 16.3438 4.1512 17.6428 2.68082C18.2914 1.93633 19.1162 1.3173 20.1165 0.823495C21.1146 0.337053 22.0587 0.06804 22.9467 0.0219727C22.9726 0.255974 22.9834 0.48999 22.9834 0.722149V0.722172Z" fill="white"/>
</svg>
