<svg width="36" height="36" viewBox="0 0 36 36" fill="none" xmlns="http://www.w3.org/2000/svg">
<path fill-rule="evenodd" clip-rule="evenodd" d="M34.6964 18.0729C34.6964 16.8654 34.5904 15.7043 34.3934 14.5896H18.6964V21.177H27.6661C27.2797 23.3056 26.1055 25.1092 24.3404 26.3168V30.5896H29.7267C32.8782 27.6249 34.6964 23.2592 34.6964 18.0729Z" fill="#4285F4"/>
<path fill-rule="evenodd" clip-rule="evenodd" d="M18.2084 34.5896C22.8951 34.5896 26.8244 33.0419 29.6964 30.4022L24.0865 26.0655C22.5322 27.1025 20.5439 27.7153 18.2084 27.7153C13.6874 27.7153 9.86064 24.6749 8.49565 20.5896H2.69641V25.0677C5.55264 30.7165 11.4229 34.5896 18.2084 34.5896Z" fill="#34A853"/>
<path fill-rule="evenodd" clip-rule="evenodd" d="M8.69641 20.9742C8.33315 19.9054 8.12675 18.7637 8.12675 17.5896C8.12675 16.4155 8.33315 15.2738 8.69641 14.205V9.58963H2.6283C1.39817 11.9945 0.696411 14.7151 0.696411 17.5896C0.696411 20.4641 1.39817 23.1848 2.6283 25.5896L8.69641 20.9742Z" fill="#FBBC05"/>
<path fill-rule="evenodd" clip-rule="evenodd" d="M18.1362 7.46393C20.6729 7.46393 22.9503 8.33598 24.7409 10.0487L29.6964 5.09131C26.7043 2.30231 22.7933 0.58963 18.1362 0.58963C11.3823 0.58963 5.53934 4.46281 2.69641 10.1115L8.46866 14.5896C9.8273 10.5043 13.6362 7.46393 18.1362 7.46393Z" fill="#EA4335"/>
</svg>
