<svg width="28" height="27" viewBox="0 0 28 27" fill="none" xmlns="http://www.w3.org/2000/svg">
<path d="M22.3937 26.5443H27.8802L16.7963 3.73828L13.9817 7.67473L11.1235 3.73828L0 26.5443H5.48644L7.64297 21.7555H20.2332L22.3898 26.5443H22.3937ZM9.52992 17.5733L13.9421 7.78969L18.3542 17.5733H9.53389H9.52992Z" fill="#161D6F"/>
<path d="M11.7382 4.63264C12.313 5.10834 13.0583 7.76039 13.9661 7.76039C14.8739 7.76039 15.6429 5.10834 16.2098 4.63264C16.7767 4.15693 17.0582 3.5187 17.0582 2.71C17.0582 1.90131 16.7767 1.29082 16.2098 0.815117C15.6429 0.339414 14.8977 0.101562 13.9661 0.101562C13.0345 0.101562 12.313 0.339414 11.7382 0.815117C11.1634 1.29082 10.874 1.92113 10.874 2.71C10.874 3.49888 11.1634 4.1609 11.7382 4.63264ZM13.978 1.14018C14.8541 1.14018 15.5637 1.84977 15.5637 2.72586C15.5637 3.60195 14.8541 6.72573 13.978 6.72573C13.1019 6.72573 12.3923 3.60195 12.3923 2.72586C12.3923 1.84977 13.1019 1.14018 13.978 1.14018Z" fill="#6B48FF"/>
</svg>
